<mxfile host="app.diagrams.net" agent="Mozilla/5.0 (Macintosh; Intel Mac OS X 10_15_7) AppleWebKit/537.36 (KHTML, like Gecko) Chrome/131.0.0.0 Safari/537.36 Edg/131.0.0.0" version="26.0.6">
  <diagram name="第 1 页" id="QYEBO3GeGkw2wW54bBML">
    <mxGraphModel dx="518" dy="806" grid="1" gridSize="10" guides="1" tooltips="1" connect="1" arrows="1" fold="1" page="1" pageScale="1" pageWidth="827" pageHeight="1169" math="0" shadow="0">
      <root>
        <mxCell id="0" />
        <mxCell id="1" parent="0" />
        <mxCell id="pS6-ycJW_rB8QYCZKvtE-13" value="灰色关联度分析" style="shape=dataStorage;whiteSpace=wrap;html=1;fixedSize=1;" vertex="1" parent="1">
          <mxGeometry x="10" y="330" width="230" height="80" as="geometry" />
        </mxCell>
        <mxCell id="pS6-ycJW_rB8QYCZKvtE-15" value="R-型聚类" style="shape=dataStorage;whiteSpace=wrap;html=1;fixedSize=1;" vertex="1" parent="1">
          <mxGeometry x="10" y="410" width="190" height="80" as="geometry" />
        </mxCell>
        <mxCell id="pS6-ycJW_rB8QYCZKvtE-18" value="lasso回归" style="shape=dataStorage;whiteSpace=wrap;html=1;fixedSize=1;" vertex="1" parent="1">
          <mxGeometry x="450" y="330" width="100" height="80" as="geometry" />
        </mxCell>
        <mxCell id="pS6-ycJW_rB8QYCZKvtE-21" value="线性回归" style="shape=dataStorage;whiteSpace=wrap;html=1;fixedSize=1;" vertex="1" parent="1">
          <mxGeometry x="265" y="310" width="100" height="80" as="geometry" />
        </mxCell>
        <mxCell id="pS6-ycJW_rB8QYCZKvtE-22" value="逐步回归" style="shape=dataStorage;whiteSpace=wrap;html=1;fixedSize=1;" vertex="1" parent="1">
          <mxGeometry x="350" y="270" width="100" height="80" as="geometry" />
        </mxCell>
        <mxCell id="pS6-ycJW_rB8QYCZKvtE-23" value="查找数据" style="ellipse;whiteSpace=wrap;html=1;aspect=fixed;" vertex="1" parent="1">
          <mxGeometry x="550" y="250" width="80" height="80" as="geometry" />
        </mxCell>
        <mxCell id="pS6-ycJW_rB8QYCZKvtE-26" style="edgeStyle=orthogonalEdgeStyle;rounded=0;orthogonalLoop=1;jettySize=auto;html=1;exitX=1;exitY=0.5;exitDx=0;exitDy=0;" edge="1" parent="1" target="pS6-ycJW_rB8QYCZKvtE-25">
          <mxGeometry relative="1" as="geometry">
            <mxPoint x="170" y="635" as="sourcePoint" />
            <mxPoint x="210" y="535" as="targetPoint" />
            <Array as="points">
              <mxPoint x="210" y="635" />
              <mxPoint x="210" y="540" />
            </Array>
          </mxGeometry>
        </mxCell>
        <mxCell id="pS6-ycJW_rB8QYCZKvtE-24" value="生育率" style="ellipse;whiteSpace=wrap;html=1;" vertex="1" parent="1">
          <mxGeometry x="70" y="600" width="120" height="80" as="geometry" />
        </mxCell>
        <mxCell id="pS6-ycJW_rB8QYCZKvtE-33" style="edgeStyle=orthogonalEdgeStyle;rounded=0;orthogonalLoop=1;jettySize=auto;html=1;exitX=1;exitY=0.5;exitDx=0;exitDy=0;entryX=0;entryY=0.5;entryDx=0;entryDy=0;" edge="1" parent="1" source="pS6-ycJW_rB8QYCZKvtE-25" target="pS6-ycJW_rB8QYCZKvtE-29">
          <mxGeometry relative="1" as="geometry">
            <Array as="points">
              <mxPoint x="420" y="540" />
              <mxPoint x="420" y="500" />
            </Array>
          </mxGeometry>
        </mxCell>
        <mxCell id="pS6-ycJW_rB8QYCZKvtE-34" style="edgeStyle=orthogonalEdgeStyle;rounded=0;orthogonalLoop=1;jettySize=auto;html=1;entryX=0;entryY=0.5;entryDx=0;entryDy=0;" edge="1" parent="1" source="pS6-ycJW_rB8QYCZKvtE-25" target="pS6-ycJW_rB8QYCZKvtE-30">
          <mxGeometry relative="1" as="geometry">
            <Array as="points">
              <mxPoint x="420" y="540" />
              <mxPoint x="420" y="580" />
            </Array>
          </mxGeometry>
        </mxCell>
        <mxCell id="pS6-ycJW_rB8QYCZKvtE-25" value="数据预处理：筛选主要变量" style="rounded=1;whiteSpace=wrap;html=1;" vertex="1" parent="1">
          <mxGeometry x="230" y="510" width="170" height="60" as="geometry" />
        </mxCell>
        <mxCell id="pS6-ycJW_rB8QYCZKvtE-27" value="" style="rounded=1;whiteSpace=wrap;html=1;" vertex="1" parent="1">
          <mxGeometry x="240" y="610" width="120" height="60" as="geometry" />
        </mxCell>
        <mxCell id="pS6-ycJW_rB8QYCZKvtE-29" value="灰色关联度分析" style="rounded=0;whiteSpace=wrap;html=1;dashed=1;dashPattern=8 8;strokeWidth=1;" vertex="1" parent="1">
          <mxGeometry x="440" y="480" width="120" height="40" as="geometry" />
        </mxCell>
        <mxCell id="pS6-ycJW_rB8QYCZKvtE-30" value="R-型聚类分析" style="rounded=0;whiteSpace=wrap;html=1;dashed=1;dashPattern=8 8;strokeWidth=1;" vertex="1" parent="1">
          <mxGeometry x="440" y="560" width="120" height="40" as="geometry" />
        </mxCell>
        <mxCell id="pS6-ycJW_rB8QYCZKvtE-31" style="edgeStyle=orthogonalEdgeStyle;rounded=0;orthogonalLoop=1;jettySize=auto;html=1;exitX=0.5;exitY=1;exitDx=0;exitDy=0;" edge="1" parent="1" source="pS6-ycJW_rB8QYCZKvtE-29" target="pS6-ycJW_rB8QYCZKvtE-29">
          <mxGeometry relative="1" as="geometry" />
        </mxCell>
        <mxCell id="pS6-ycJW_rB8QYCZKvtE-44" style="edgeStyle=orthogonalEdgeStyle;rounded=0;orthogonalLoop=1;jettySize=auto;html=1;" edge="1" parent="1" source="pS6-ycJW_rB8QYCZKvtE-41">
          <mxGeometry relative="1" as="geometry">
            <mxPoint x="740" y="540" as="targetPoint" />
          </mxGeometry>
        </mxCell>
        <mxCell id="pS6-ycJW_rB8QYCZKvtE-41" value="" style="strokeWidth=1;html=1;shape=mxgraph.flowchart.annotation_2;align=left;labelPosition=right;pointerEvents=1;direction=west;" vertex="1" parent="1">
          <mxGeometry x="560" y="500" width="40" height="80" as="geometry" />
        </mxCell>
      </root>
    </mxGraphModel>
  </diagram>
</mxfile>
